HIERARCHY
ROOT Hips
{
  OFFSET 55.1262 85.7613 8.85991
  CHANNELS 6 Xposition Yposition Zposition Zrotation Xrotation Yrotation
  JOINT spine
  {
    OFFSET 0 6.3926 0.367606
    CHANNELS 3 Zrotation Xrotation Yrotation
    JOINT spine1
    {
      OFFSET 0 9.17611 0
      CHANNELS 3 Zrotation Xrotation Yrotation
      JOINT spine2
      {
        OFFSET 0 8.79238 0
        CHANNELS 3 Zrotation Xrotation Yrotation
        JOINT Neck
        {
          OFFSET 0 22.5737 1.07624
          CHANNELS 3 Zrotation Xrotation Yrotation
          JOINT Head
          {
            OFFSET 0 6.82011 0
            CHANNELS 3 Zrotation Xrotation Yrotation
            End Site
            {
              OFFSET 0 16.5085 -5.44427
            }
          }
        }
        JOINT RightShoulder
        {
          OFFSET -3.70221 9.49509 -0.515508
          CHANNELS 3 Zrotation Xrotation Yrotation
          JOINT RightArm
          {
            OFFSET 0 12.4537 0
            CHANNELS 3 Zrotation Xrotation Yrotation
            JOINT RightArmRoll
            {
              OFFSET 0 6.28686 0
              CHANNELS 3 Zrotation Xrotation Yrotation
              JOINT RightForeArm
              {
                OFFSET 0 18.3114 0
                CHANNELS 3 Zrotation Xrotation Yrotation
                JOINT RightForeArmRoll
                {
                  OFFSET 0 7.05483 0
                  CHANNELS 3 Zrotation Xrotation Yrotation
                  JOINT RightHand
                  {
                    OFFSET 0 14.1575 0
                    CHANNELS 3 Zrotation Xrotation Yrotation
                    End Site
                    {
                      OFFSET 0 0 0
                    }
                  }
                }
              }
            }
          }
        }
        JOINT LeftShoulder
        {
          OFFSET 3.70221 9.49509 -0.515508
          CHANNELS 3 Zrotation Xrotation Yrotation
          JOINT LeftArm
          {
            OFFSET 0 12.4537 0
            CHANNELS 3 Zrotation Xrotation Yrotation
            JOINT LeftArmRoll
            {
              OFFSET 0 6.28686 0
              CHANNELS 3 Zrotation Xrotation Yrotation
              JOINT LeftForeArm
              {
                OFFSET 0 18.3114 0
                CHANNELS 3 Zrotation Xrotation Yrotation
                JOINT LeftForeArmRoll
                {
                  OFFSET 0 7.05483 0
                  CHANNELS 3 Zrotation Xrotation Yrotation
                  JOINT LeftHand
                  {
                    OFFSET 0 14.1575 0
                    CHANNELS 3 Zrotation Xrotation Yrotation
                    End Site
                    {
                      OFFSET 0 0 0
                    }
                  }
                }
              }
            }
          }
        }
      }
    }
  }
  JOINT RightUpLeg
  {
    OFFSET -5.66616 -1.03903 -0.87161
    CHANNELS 3 Zrotation Xrotation Yrotation
    JOINT RightUpLegRoll
    {
      OFFSET 0 16.6005 0
      CHANNELS 3 Zrotation Xrotation Yrotation
      JOINT RightLeg
      {
        OFFSET 0 -20.5572 0
        CHANNELS 3 Zrotation Xrotation Yrotation
        JOINT RightLegRoll
        {
          OFFSET 0 20.6244 0
          CHANNELS 3 Zrotation Xrotation Yrotation
          JOINT RightFoot
          {
            OFFSET 0 17.1664 0
            CHANNELS 3 Zrotation Xrotation Yrotation
            JOINT RightToeBase
            {
              OFFSET 0 14.3502 0
              CHANNELS 3 Zrotation Xrotation Yrotation
              End Site
              {
                OFFSET 0.00608252 6.94971 -0.801061
              }
            }
          }
        }
      }
    }
  }
  JOINT LeftUpLeg
  {
    OFFSET 5.66616 -1.03903 -0.87161
    CHANNELS 3 Zrotation Xrotation Yrotation
    JOINT LeftUpLegRoll
    {
      OFFSET 0 16.6006 0
      CHANNELS 3 Zrotation Xrotation Yrotation
      JOINT LeftLeg
      {
        OFFSET 0 20.5571 0
        CHANNELS 3 Zrotation Xrotation Yrotation
        JOINT LeftLegRoll
        {
          OFFSET 0 20.8151 0
          CHANNELS 3 Zrotation Xrotation Yrotation
          JOINT LeftFoot
          {
            OFFSET 0 16.9757 0
            CHANNELS 3 Zrotation Xrotation Yrotation
            JOINT LeftToeBase
            {
              OFFSET 0 14.3502 0
              CHANNELS 3 Zrotation Xrotation Yrotation
              End Site
              {
                OFFSET -0.0272592 6.94971 -0.801061
              }
            }
          }
        }
      }
    }
  }
}
MOTION
Frames: 6
Frame Time: 0.00208333
54.9754 85.6638 9.03082 -1.82469 -3.59486 1.00772 -0.201745 -1.00349 -0.174212 -0.408713 2.01608 -0.321487 -0.405215 3.66111 -0.314608 7.01903 7.62099 -2.37914 -3.54604 4.00901 -0.6348 64.6518 -2.89603 -2.28114 107.672 18.0829 1.90596 8.06511e-007 -3.17957e-008 -2.85525e-006 15.0689 5.16231 -0.954716 -2.07185e-006 -7.13512e-006 -3.00879 8.02895 -4.95145 0.697691 -52.331 2.85744 -2.85868 -113.791 14.7915 -0.0134773 -4.09316e-006 -1.36936e-006 7.63908e-006 -9.64415 4.96066 0.993542 5.78338e-006 -3.44004e-006 3.00232 -8.02899 -4.95144 -0.69767 178.282 -1.95598 -0.220355 180 7.01553e-015 178.951 176.495 5.23099 179.806 2.30606e-006 3.15075e-006 0.0402628 -18.4091 67.7856 19.3559 8.13649 25.2326 -3.48773 -174.052 -1.48523 -0.335653 4.54188e-006 -4.6773e-006 -1.03074 -1.39184 -8.17509 0.480165 4.1259e-006 1.22674e-006 -0.0739233 18.3451 69.3795 -20.6926 -8.13651 25.2329 3.48736 
54.9778 85.6487 9.03334 -1.82713 -3.59425 1.00638 -0.201746 -1.00373 -0.17406 -0.408021 2.01448 -0.321717 -0.404521 3.65951 -0.314678 7.02309 7.63334 -2.38349 -3.55084 3.9969 -0.637971 64.6553 -2.89519 -2.28098 107.655 18.0822 1.94265 8.06511e-007 -3.17957e-008 -2.85525e-006 15.0524 5.13389 -0.951201 -2.07185e-006 -7.13512e-006 -3.00879 8.02895 -4.95145 0.697691 -52.3286 2.86525 -2.8645 -113.788 14.7855 -0.0333643 -4.09316e-006 -1.36936e-006 7.63908e-006 -9.63179 4.94836 0.992367 5.78338e-006 -3.44004e-006 3.00232 -8.02899 -4.95144 -0.69767 178.287 -1.95748 -0.225575 180 7.01553e-015 178.951 176.499 5.22894 179.805 2.30606e-006 3.15075e-006 0.0402628 -18.4102 67.7869 19.357 8.13649 25.2326 -3.48773 -174.05 -1.48783 -0.336307 4.54188e-006 -4.6773e-006 -1.03074 -1.39046 -8.171 0.479407 4.1259e-006 1.22674e-006 -0.0739233 18.3483 69.3788 -20.6921 -8.13651 25.2329 3.48736 
54.9826 85.6547 9.03942 -1.82964 -3.59372 1.005 -0.201741 -1.00397 -0.17392 -0.407281 2.01286 -0.321982 -0.40378 3.65789 -0.314771 7.02701 7.6462 -2.38789 -3.55543 3.98442 -0.641199 64.6587 -2.894 -2.28062 107.638 18.0814 1.97886 8.06511e-007 -3.17957e-008 -2.85525e-006 15.0362 5.10554 -0.947657 -2.07185e-006 -7.13512e-006 -3.00879 8.02895 -4.95145 0.697691 -52.3263 2.87319 -2.87041 -113.785 14.7792 -0.0527152 -4.09316e-006 -1.36936e-006 7.63908e-006 -9.62001 4.93676 0.991267 5.78338e-006 -3.44004e-006 3.00232 -8.02899 -4.95144 -0.69767 178.293 -1.95901 -0.230827 180 7.01553e-015 178.951 176.504 5.22694 179.805 2.30606e-006 3.15075e-006 0.0402628 -18.4112 67.7881 19.3581 8.13649 25.2326 -3.48773 -174.047 -1.49058 -0.33692 4.54188e-006 -4.6773e-006 -1.03074 -1.38896 -8.16666 0.478602 4.1259e-006 1.22674e-006 -0.0739233 18.3515 69.378 -20.6915 -8.13651 25.2329 3.48736 
54.9736 85.6651 9.04156 -1.8322 -3.59325 1.0036 -0.201734 -1.00419 -0.173787 -0.406509 2.01124 -0.322271 -0.403005 3.65627 -0.314881 7.03082 7.65942 -2.39232 -3.55987 3.97167 -0.644469 64.662 -2.89256 -2.28012 107.622 18.0804 2.01474 8.06511e-007 -3.17957e-008 -2.85525e-006 15.0202 5.07723 -0.944091 -2.07185e-006 -7.13512e-006 -3.00879 8.02895 -4.95145 0.697691 -52.324 2.88124 -2.87638 -113.781 14.7727 -0.0716906 -4.09316e-006 -1.36936e-006 7.63908e-006 -9.60864 4.92566 0.99022 5.78338e-006 -3.44004e-006 3.00232 -8.02899 -4.95144 -0.69767 178.299 -1.96057 -0.2361 180 7.01553e-015 178.951 176.508 5.22498 179.804 2.30606e-006 3.15075e-006 0.0402628 -18.4123 67.7894 19.3593 8.13649 25.2326 -3.48773 -174.045 -1.49346 -0.337503 4.54188e-006 -4.6773e-006 -1.03074 -1.38739 -8.16216 0.477764 4.1259e-006 1.22674e-006 -0.0739233 18.3548 69.377 -20.6908 -8.13651 25.2329 3.48736 
54.9705 85.6631 9.04361 -1.83478 -3.59281 1.00219 -0.201724 -1.00442 -0.173659 -0.405718 2.00962 -0.322574 -0.402211 3.65465 -0.315001 7.03458 7.67285 -2.39676 -3.56422 3.95877 -0.647761 64.6652 -2.89098 -2.27953 107.606 18.0794 2.05042 8.06511e-007 -3.17957e-008 -2.85525e-006 15.0043 5.04895 -0.940514 -2.07185e-006 -7.13512e-006 -3.00879 8.02895 -4.95145 0.697691 -52.3218 2.88933 -2.88238 -113.778 14.7662 -0.0904509 -4.09316e-006 -1.36936e-006 7.63908e-006 -9.59751 4.91484 0.989203 5.78338e-006 -3.44004e-006 3.00232 -8.02899 -4.95144 -0.69767 178.305 -1.96214 -0.241385 180 7.01553e-015 178.951 176.513 5.22301 179.804 2.30606e-006 3.15075e-006 0.0402628 -18.4133 67.7907 19.3604 8.13649 25.2326 -3.48773 -174.042 -1.49639 -0.33807 4.54188e-006 -4.6773e-006 -1.03074 -1.38576 -8.15757 0.476907 4.1259e-006 1.22674e-006 -0.0739233 18.358 69.376 -20.69 -8.13651 25.2329 3.48736 
54.9695 85.6492 9.04789 -1.83737 -3.59238 1.00078 -0.201714 -1.00464 -0.173533 -0.404922 2.00799 -0.322881 -0.401412 3.65303 -0.315122 7.03832 7.68633 -2.40122 -3.56856 3.94584 -0.651059 64.6685 -2.88936 -2.27893 107.59 18.0784 2.08606 8.06511e-007 -3.17957e-008 -2.85525e-006 14.9885 5.02067 -0.936934 -2.07185e-006 -7.13512e-006 -3.00879 8.02895 -4.95145 0.697691 -52.3195 2.89744 -2.88839 -113.775 14.7596 -0.109157 -4.09316e-006 -1.36936e-006 7.63908e-006 -9.58642 4.90409 0.988194 5.78338e-006 -3.44004e-006 3.00232 -8.02899 -4.95144 -0.69767 178.31 -1.96372 -0.246673 180 7.01553e-015 178.951 176.518 5.22105 179.803 2.30606e-006 3.15075e-006 0.0402628 -18.4144 67.792 19.3615 8.13649 25.2326 -3.48773 -174.039 -1.49935 -0.338632 4.54188e-006 -4.6773e-006 -1.03074 -1.38413 -8.15295 0.476045 4.1259e-006 1.22674e-006 -0.0739233 18.3612 69.375 -20.6893 -8.13651 25.2329 3.48736 
